# xmcd CD database file
#
# Track frame offsets:
#	150
#	9771
#	18759
#	26305
#	35933
#	47687
#	56069
#	64624
#	83107
#	98155
#	115289
#	128443
#	143436
#	153697
#	163962
#
# Disc length: 2403 seconds
#
# Revision: 0
# Processed by: cddbd v1.5.2PL0 Copyright (c) Steve Scherf et al.
# Submitted via: CDex 1.70beta2
#
DISCID=b609610f
DTITLE=Rick Nelson - Garden Party [CD2)
DYEAR=2004
DGENRE=Country
TTITLE0=Believe What You Say
TTITLE1=Waitin' In School
TTITLE2=I'm Walking
TTITLE3=Mighty Good
TTITLE4=You Are The Only One
TTITLE5=Do You Know What I Mean
TTITLE6=Stood Up (Live)
TTITLE7=That's Alright Mama (Live)
TTITLE8=Milk Cow Blues Boogie (Live)
TTITLE9=Honky Tonk Woman (Live)
TTITLE10=My Bucket's Got A Hole In It (Live)
TTITLE11=Boppin'  The Blues (Live)
TTITLE12=Hello, Mary Lou (Live)
TTITLE13=Travellin'  Man (Live)
TTITLE14=Garden Party (Live)
EXTD=YEAR: 2004
EXTT0=
EXTT1=
EXTT2=
EXTT3=
EXTT4=
EXTT5=
EXTT6=
EXTT7=
EXTT8=
EXTT9=
EXTT10=
EXTT11=
EXTT12=
EXTT13=
EXTT14=
PLAYORDER=
